<mxfile host="app.diagrams.net" agent="Mozilla/5.0 (Windows NT 10.0; Win64; x64) AppleWebKit/537.36 (KHTML, like Gecko) Chrome/131.0.0.0 Safari/537.36 Edg/131.0.0.0" version="25.0.3">
  <diagram name="Page-1" id="AQCiaJg8Itso78mvtKDN">
    <mxGraphModel dx="1042" dy="581" grid="0" gridSize="10" guides="1" tooltips="1" connect="1" arrows="1" fold="1" page="0" pageScale="1" pageWidth="827" pageHeight="1169" math="0" shadow="0">
      <root>
        <mxCell id="0" />
        <mxCell id="1" parent="0" />
        <mxCell id="R12EKOxM_f_JUUTbBxMO-1" value="" style="line;strokeWidth=2;html=1;fillColor=none;fontSize=28;fontColor=#004D99;strokeColor=#004D99;" vertex="1" parent="1">
          <mxGeometry x="20" y="170" width="1000" height="10" as="geometry" />
        </mxCell>
        <mxCell id="R12EKOxM_f_JUUTbBxMO-2" value="Stage 1" style="shape=offPageConnector;whiteSpace=wrap;html=1;fillColor=#0075E8;fontSize=15;fontColor=#FFFFFF;size=0.5093750000000015;verticalAlign=top;strokeColor=none;" vertex="1" parent="1">
          <mxGeometry x="100" y="110" width="160" height="40" as="geometry" />
        </mxCell>
        <mxCell id="R12EKOxM_f_JUUTbBxMO-3" value="&lt;span&gt;Stage 3&lt;/span&gt;" style="shape=offPageConnector;whiteSpace=wrap;html=1;fillColor=#0075E8;fontSize=15;fontColor=#FFFFFF;size=0.5093750000000015;verticalAlign=top;strokeColor=none;" vertex="1" parent="1">
          <mxGeometry x="553" y="110" width="160" height="40" as="geometry" />
        </mxCell>
        <mxCell id="R12EKOxM_f_JUUTbBxMO-4" value="&lt;span&gt;Stage 2&lt;/span&gt;" style="shape=offPageConnector;whiteSpace=wrap;html=1;fillColor=#0075E8;fontSize=15;fontColor=#FFFFFF;size=0.4178571428571445;flipV=1;verticalAlign=bottom;strokeColor=none;spacingBottom=4;" vertex="1" parent="1">
          <mxGeometry x="327" y="195" width="160" height="35" as="geometry" />
        </mxCell>
        <mxCell id="R12EKOxM_f_JUUTbBxMO-5" value="&lt;span&gt;Stage 4&lt;/span&gt;" style="shape=offPageConnector;whiteSpace=wrap;html=1;fillColor=#0075E8;fontSize=15;fontColor=#FFFFFF;size=0.4178571428571445;flipV=1;verticalAlign=bottom;strokeColor=none;spacingBottom=4;" vertex="1" parent="1">
          <mxGeometry x="780" y="195" width="160" height="35" as="geometry" />
        </mxCell>
        <mxCell id="R12EKOxM_f_JUUTbBxMO-6" value="" style="ellipse;whiteSpace=wrap;html=1;fillColor=#61BAFF;fontSize=28;fontColor=#004D99;strokeWidth=3;strokeColor=#004D99;" vertex="1" parent="1">
          <mxGeometry x="170" y="165" width="20" height="20" as="geometry" />
        </mxCell>
        <mxCell id="R12EKOxM_f_JUUTbBxMO-7" value="" style="ellipse;whiteSpace=wrap;html=1;fillColor=#61BAFF;fontSize=28;fontColor=#004D99;strokeWidth=3;strokeColor=#004D99;" vertex="1" parent="1">
          <mxGeometry x="397" y="165" width="20" height="20" as="geometry" />
        </mxCell>
        <mxCell id="R12EKOxM_f_JUUTbBxMO-8" value="" style="ellipse;whiteSpace=wrap;html=1;fillColor=#61BAFF;fontSize=28;fontColor=#004D99;strokeWidth=3;strokeColor=#004D99;" vertex="1" parent="1">
          <mxGeometry x="623" y="165" width="20" height="20" as="geometry" />
        </mxCell>
        <mxCell id="R12EKOxM_f_JUUTbBxMO-9" value="" style="ellipse;whiteSpace=wrap;html=1;fillColor=#61BAFF;fontSize=28;fontColor=#004D99;strokeWidth=3;strokeColor=#004D99;" vertex="1" parent="1">
          <mxGeometry x="850" y="165" width="20" height="20" as="geometry" />
        </mxCell>
        <mxCell id="R12EKOxM_f_JUUTbBxMO-10" value="&lt;p&gt;&lt;font style=&quot;font-size: 16px;&quot;&gt;Interesting and enlightening stage (60BC-126)&lt;/font&gt;&lt;/p&gt;" style="text;html=1;spacing=5;spacingTop=-20;whiteSpace=wrap;overflow=hidden;strokeColor=none;strokeWidth=3;fillColor=#E6E6E6;fontSize=13;fontColor=#000000;align=center;rounded=1;" vertex="1" parent="1">
          <mxGeometry x="73" y="200" width="215" height="57" as="geometry" />
        </mxCell>
        <mxCell id="R12EKOxM_f_JUUTbBxMO-11" value="&lt;p&gt;&lt;span style=&quot;font-weight: normal;&quot;&gt;&lt;font style=&quot;font-size: 16px;&quot; face=&quot;Helvetica&quot;&gt;Exploratory stage (1638-1901)&lt;/font&gt;&lt;/span&gt;&lt;/p&gt;" style="text;html=1;spacing=5;spacingTop=-20;whiteSpace=wrap;overflow=hidden;strokeColor=none;strokeWidth=3;fillColor=#E6E6E6;fontSize=13;fontColor=#000000;align=center;rounded=1;" vertex="1" parent="1">
          <mxGeometry x="299" y="99" width="215" height="51" as="geometry" />
        </mxCell>
        <mxCell id="R12EKOxM_f_JUUTbBxMO-12" value="&lt;p&gt;&lt;span style=&quot;color: rgb(31, 31, 31); font-size: 16px; font-weight: 400; text-align: start;&quot;&gt;&lt;font face=&quot;Helvetica&quot;&gt;Structure-based application stage (1914–1990)&lt;/font&gt;&lt;/span&gt;&lt;/p&gt;" style="text;html=1;spacing=5;spacingTop=-20;whiteSpace=wrap;overflow=hidden;strokeColor=none;strokeWidth=3;fillColor=#E6E6E6;fontSize=13;fontColor=#000000;align=center;rounded=1;" vertex="1" parent="1">
          <mxGeometry x="525" y="200" width="215" height="46" as="geometry" />
        </mxCell>
        <mxCell id="R12EKOxM_f_JUUTbBxMO-13" value="&lt;p&gt;&lt;span style=&quot;color: rgb(31, 31, 31); font-size: 16px; font-weight: 400; text-align: start;&quot;&gt;&lt;font face=&quot;Helvetica&quot;&gt;&amp;nbsp;Multi-functional, multi-field and multi-scale rapid development stage (1990–now)&lt;/font&gt;&lt;/span&gt;&lt;/p&gt;" style="text;html=1;spacing=5;spacingTop=-20;whiteSpace=wrap;overflow=hidden;strokeColor=none;strokeWidth=3;fillColor=#E6E6E6;fontSize=13;fontColor=#000000;align=center;rounded=1;" vertex="1" parent="1">
          <mxGeometry x="753" y="61" width="215" height="88" as="geometry" />
        </mxCell>
      </root>
    </mxGraphModel>
  </diagram>
</mxfile>
